GIL04_free3_ik
nRows=3
nColumns=375

# SIMM Motion File Header:
name GIL04_free3_ik
datacolumns 375
datarows 3
otherdata 1
range 0.10833000 0.12500000
endheader
time	pelvis_tx	pelvis_ty	pelvis_tz	pelvis_tilt	pelvis_list	pelvis_rotation	hip_flexion_r	hip_adduction_r	hip_rotation_r	knee_angle_r	ankle_angle_r	hip_flexion_l	hip_adduction_l	hip_rotation_l	knee_angle_l	ankle_angle_l	lumbar_extension	lumbar_bending	lumbar_rotation	subtalar_angle_r	mtp_angle_r	subtalar_angle_l	mtp_angle_l	asis_r_px	asis_r_py	asis_r_pz	asis_l_px	asis_l_py	asis_l_pz	midasis_px	midasis_py	midasis_pz	psis_r_px	psis_r_py	psis_r_pz	psis_l_px	psis_l_py	psis_l_pz	hip_r_px	hip_r_py	hip_r_pz	hip_l_px	hip_l_py	hip_l_pz	midhip_px	midhip_py	midhip_pz	epicondLat_r_px	epicondLat_r_py	epicondLat_r_pz	epicondMed_r_px	epicondMed_r_py	epicondMed_r_pz	thighwand_r_px	thighwand_r_py	thighwand_r_pz	upperleg1_r_px	upperleg1_r_py	upperleg1_r_pz	upperleg2_r_px	upperleg2_r_py	upperleg2_r_pz	malleolusLat_r_px	malleolusLat_r_py	malleolusLat_r_pz	malleolusMedv_r_px	malleolusMedv_r_py	malleolusMedv_r_pz	shankwand_r_px	shankwand_r_py	shankwand_r_pz	lowerleg1_r_px	lowerleg1_r_py	lowerleg1_r_pz	knee_r_px	knee_r_py	knee_r_pz	ankle_r_px	ankle_r_py	ankle_r_pz	toe_r_px	toe_r_py	toe_r_pz	epicondLat_l_px	epicondLat_l_py	epicondLat_l_pz	epicondMed_l_px	epicondMed_l_py	epicondMed_l_pz	thighwand_l_px	thighwand_l_py	thighwand_l_pz	upperleg1_l_px	upperleg1_l_py	upperleg1_l_pz	upperleg2_l_px	upperleg2_l_py	upperleg2_l_pz	malleolusLat_l_px	malleolusLat_l_py	malleolusLat_l_pz	malleolusMedv_l_px	malleolusMedv_l_py	malleolusMedv_l_pz	shankwand_l_px	shankwand_l_py	shankwand_l_pz	lowerleg1_l_px	lowerleg1_l_py	lowerleg1_l_pz	knee_l_px	knee_l_py	knee_l_pz	ankle_l_px	ankle_l_py	ankle_l_pz	toe_l_px	toe_l_py	toe_l_pz	subclavicle_r_px	subclavicle_r_py	subclavicle_r_pz	subclavicle_l_px	subclavicle_l_py	subclavicle_l_pz	neck_px	neck_py	neck_pz	sternalnotch_px	sternalnotch_py	sternalnotch_pz	xyphoidprocess_px	xyphoidprocess_py	xyphoidprocess_pz	midhip_tx	midhip_ty	midhip_tz	hip_r_tx	hip_r_ty	hip_r_tz	hip_l_tx	hip_l_ty	hip_l_tz	knee_r_tx	knee_r_ty	knee_r_tz	knee_l_tx	knee_l_ty	knee_l_tz	ankle_r_tx	ankle_r_ty	ankle_r_tz	ankle_l_tx	ankle_l_ty	ankle_l_tz	midasis_tx	midasis_ty	midasis_tz	asis_r_tx	asis_r_ty	asis_r_tz	asis_l_tx	asis_l_ty	asis_l_tz	psis_r_tx	psis_r_ty	psis_r_tz	psis_l_tx	psis_l_ty	psis_l_tz	epicondLat_r_tx	epicondLat_r_ty	epicondLat_r_tz	epicondLat_l_tx	epicondLat_l_ty	epicondLat_l_tz	epicondMed_r_tx	epicondMed_r_ty	epicondMed_r_tz	epicondMed_l_tx	epicondMed_l_ty	epicondMed_l_tz	malleolusLat_r_tx	malleolusLat_r_ty	malleolusLat_r_tz	malleolusLat_l_tx	malleolusLat_l_ty	malleolusLat_l_tz	malleolusMedv_r_tx	malleolusMedv_r_ty	malleolusMedv_r_tz	malleolusMedv_l_tx	malleolusMedv_l_ty	malleolusMedv_l_tz	neck_tx	neck_ty	neck_tz	subclavicle_r_tx	subclavicle_r_ty	subclavicle_r_tz	subclavicle_l_tx	subclavicle_l_ty	subclavicle_l_tz	sternalnotch_tx	sternalnotch_ty	sternalnotch_tz	xyphoidprocess_tx	xyphoidprocess_ty	xyphoidprocess_tz	thighwand_r_tx	thighwand_r_ty	thighwand_r_tz	thighwand_l_tx	thighwand_l_ty	thighwand_l_tz	upperleg1_r_tx	upperleg1_r_ty	upperleg1_r_tz	upperleg1_l_tx	upperleg1_l_ty	upperleg1_l_tz	upperleg2_r_tx	upperleg2_r_ty	upperleg2_r_tz	upperleg2_l_tx	upperleg2_l_ty	upperleg2_l_tz	shankwand_r_tx	shankwand_r_ty	shankwand_r_tz	shankwand_l_tx	shankwand_l_ty	shankwand_l_tz	lowerleg1_r_tx	lowerleg1_r_ty	lowerleg1_r_tz	lowerleg1_l_tx	lowerleg1_l_ty	lowerleg1_l_tz	toe_r_tx	toe_r_ty	toe_r_tz	toe_l_tx	toe_l_ty	toe_l_tz	ground_force_vx	ground_force_vy	ground_force_vz	ground_force_px	ground_force_py	ground_force_pz	ground_force_vx	ground_force_vy	ground_force_vz	ground_force_px	ground_force_py	ground_force_pz	ground_torque_x	ground_torque_y	ground_torque_z	ground_torque_x	ground_torque_y	ground_torque_z	ground_marker_px	ground_marker_py	ground_marker_pz	ground_marker_px	ground_marker_py	ground_marker_pz	ground_marker_px	ground_marker_py	ground_marker_pz	ground_marker_px	ground_marker_py	ground_marker_pz	ground_marker_px	ground_marker_py	ground_marker_pz	ground_marker_px	ground_marker_py	ground_marker_pz	ground_marker_px	ground_marker_py	ground_marker_pz	ground_marker_px	ground_marker_py	ground_marker_pz	ground_marker_px	ground_marker_py	ground_marker_pz	ground_marker_px	ground_marker_py	ground_marker_pz	ground_marker_px	ground_marker_py	ground_marker_pz	ground_marker_px	ground_marker_py	ground_marker_pz	ground_marker_px	ground_marker_py	ground_marker_pz	ground_marker_px	ground_marker_py	ground_marker_pz	ground_marker_px	ground_marker_py	ground_marker_pz	ground_marker_px	ground_marker_py	ground_marker_pz	ground_marker_px	ground_marker_py	ground_marker_pz	ground_marker_px	ground_marker_py	ground_marker_pz	ground_marker_px	ground_marker_py	ground_marker_pz	ground_marker_px	ground_marker_py	ground_marker_pz	ground_marker_px	ground_marker_py	ground_marker_pz	ground_marker_px	ground_marker_py	ground_marker_pz	ground_marker_px	ground_marker_py	ground_marker_pz	ground_marker_px	ground_marker_py	ground_marker_pz	ground_marker_px	ground_marker_py	ground_marker_pz	ground_marker_px	ground_marker_py	ground_marker_pz	ground_marker_px	ground_marker_py	ground_marker_pz	ground_marker_px	ground_marker_py	ground_marker_pz	ground_marker_px	ground_marker_py	ground_marker_pz	ground_marker_px	ground_marker_py	ground_marker_pz	ground_marker_px	ground_marker_py	ground_marker_pz	ground_marker_px	ground_marker_py	ground_marker_pz	ground_marker_px	ground_marker_py	ground_marker_pz	ground_marker_px	ground_marker_py	ground_marker_pz	ground_marker_px	ground_marker_py	ground_marker_pz	ground_marker_px	ground_marker_py	ground_marker_pz	ground_marker_px	ground_marker_py	ground_marker_pz
      0.10833000	      1.14998767	      0.71037649	     -0.19840850	     -0.79016004	      4.69689260	      1.04006153	    -13.45377133	     -3.80923664	      1.12670084	    -38.68101943	    -25.52955639	     28.10388595	      9.80209696	      0.59338186	    -24.88972625	     -3.22366764	     -0.75445893	     -9.50608117	     11.97935646	      0.00000000	      0.00000000	      0.00000000	      0.00000000	      1.25594823	      0.69100066	     -0.12162375	      1.25895357	      0.69724337	     -0.30832734	      1.16020263	      0.71025079	     -0.19859334	      1.12336311	      0.76440320	     -0.19542890	      1.12276780	      0.76137132	     -0.25027663	      1.09877638	      0.65793315	     -0.14070042	      1.09670191	      0.66794106	     -0.26215005	      1.09773915	      0.66293711	     -0.20142524	      1.05408485	      0.31914807	     -0.08712134	      1.04769992	      0.32074012	     -0.18741758	      1.09417941	      0.41713514	     -0.01737361	      1.14509124	      0.45779741	     -0.08909183	      1.12282190	      0.37631111	     -0.09831540	      0.77316113	      0.11815087	     -0.07005735	      0.77851350	      0.11736753	     -0.12992696	      0.85150940	      0.19829712	     -0.00812085	      0.89866908	      0.21743101	     -0.07335811	      1.01958780	      0.33703468	     -0.14378612	      0.76522457	      0.14373388	     -0.13480349	      0.75486624	      0.00825069	     -0.10558735	      1.29338801	      0.38197369	     -0.30071573	      1.29162709	      0.37962213	     -0.19662667	      1.37832708	      0.52567254	     -0.28390432	      1.29281778	      0.55509197	     -0.23312216	      1.31188513	      0.46991080	     -0.22392659	      1.27789505	      0.04351381	     -0.28689630	      1.27559807	      0.04718387	     -0.22336600	      1.37069336	      0.14148066	     -0.28483545	      1.31025549	      0.19872897	     -0.26709558	      1.24617721	      0.37679502	     -0.23255314	      1.25869680	      0.05817367	     -0.21086830	      1.37544833	      0.01230922	     -0.25552140	      1.11009366	      1.10993324	     -0.16204184	      1.09301845	      1.11385438	     -0.27610535	      1.02191519	      1.10480605	     -0.20655022	      1.10350302	      1.09973593	     -0.22238856	      1.19973915	      0.99361080	     -0.23977106	      1.10418400	      0.65539000	     -0.20085700	      1.09814400	      0.65642800	     -0.13459200	      1.09831800	      0.66581200	     -0.26007100	      1.02190800	      0.34969000	     -0.13710100	      1.24303400	      0.38300600	     -0.22318900	      0.76495200	      0.15247300	     -0.13258700	      1.25825500	      0.05865500	     -0.22860900	      1.16252900	      0.72585700	     -0.19240100	      1.16239800	      0.71879600	     -0.09797300	      1.16266100	      0.73291900	     -0.28682900	      1.01623900	      0.76151500	     -0.17187300	      1.01292500	      0.75818000	     -0.22690600	      1.02357300	      0.34886400	     -0.08663600	      1.24760600	      0.37887500	     -0.27280800	      1.02696300	      0.33666700	     -0.18453000	      1.25352400	      0.38727800	     -0.16701700	      0.76179400	      0.15734200	     -0.09959300	      1.25548100	      0.05909900	     -0.26299500	      0.76685200	      0.16054600	     -0.15776100	      1.25058300	      0.06473100	     -0.20061300	      1.02585800	      1.10592700	     -0.20876400	      1.11802100	      1.06799900	     -0.15192400	      1.10500500	      1.06706600	     -0.28099000	      1.10667600	      1.05571100	     -0.21818200	      1.14090300	      0.91564100	     -0.22015600	      1.04878400	      0.43546500	     -0.00970900	      1.32097500	      0.53609300	     -0.26250900	      1.09372300	      0.48562200	     -0.07876500	      1.22938200	      0.55773500	     -0.21684700	      1.08751400	      0.40201300	     -0.09110000	      1.26097400	      0.47763400	     -0.20028100	      0.83402400	      0.22995600	     -0.02692200	      1.34242800	      0.16141300	     -0.25939200	      0.88454000	      0.25290900	     -0.08633500	      1.28310900	      0.21618800	     -0.24125100	      0.76876200	      0.05560500	     -0.13885700	      1.35064700	      0.03787700	     -0.22264000	      0.00000000	      0.00000000	      0.00000000	      1.72888879	      0.00000000	     -0.16864011	    -77.99750847	    372.54421941	      9.10175169	      1.26420862	      0.00000000	     -0.23419946	      0.00000000	      0.00000000	      0.00000000	      0.00000000	      1.08136316	      0.00000000	      1.10418427	      0.65539044	     -0.20085722	      1.09814394	      0.65642846	     -0.13459219	      1.09831834	      0.66581202	     -0.26007059	      1.02190840	      0.34969047	     -0.13710128	      1.24303389	      0.38300610	     -0.22318895	      0.76495171	      0.15247309	     -0.13258670	      1.25825453	      0.05865454	     -0.22860926	      1.16252947	      0.72585720	     -0.19240087	      1.16239834	      0.71879572	     -0.09797291	      1.16266072	      0.73291868	     -0.28682885	      1.01623917	      0.76151466	     -0.17187282	      1.01292455	      0.75818020	     -0.22690625	      1.02357328	      0.34886387	     -0.08663550	      1.24760640	      0.37887499	     -0.27280775	      1.02696347	      0.33666661	     -0.18452990	      1.25352418	      0.38727772	     -0.16701691	      0.76179439	      0.15734218	     -0.09959318	      1.25548065	      0.05909900	     -0.26299468	      0.76685184	      0.16054586	     -0.15776113	      1.25058293	      0.06473111	     -0.20061289	      1.02585828	      1.10592699	     -0.20876415	      1.11802125	      1.06799936	     -0.15192406	      1.10500526	      1.06706619	     -0.28098971	      1.10667622	      1.05571139	     -0.21818231	      1.14090288	      0.91564101	     -0.22015578	      1.04878366	      0.43546537	     -0.00970860	      1.32097518	      0.53609294	     -0.26250893	      1.09372342	      0.48562151	     -0.07876517	      1.22938168	      0.55773479	     -0.21684702	      1.08751369	      0.40201297	     -0.09109996	      1.26097393	      0.47763386	     -0.20028050	      0.83402443	      0.22995605	     -0.02692153	      1.34242773	      0.16141309	     -0.25939244	      0.88454032	      0.25290871	     -0.08633506	      1.28310859	      0.21618827	     -0.24125108	      0.76876247	      0.05560527	     -0.13885655	      1.35064673	      0.03787747	     -0.22263999
      0.11667000	      1.15984141	      0.71121877	     -0.19930555	     -0.87554763	      4.78976275	      1.04340820	    -11.65675330	     -4.27278753	      0.62488234	    -41.66835413	    -27.37493386	     27.66212737	     10.04557564	      0.66753452	    -25.57632808	     -2.16618400	     -0.77377404	     -9.55362673	     11.78360420	      0.00000000	      0.00000000	      0.00000000	      0.00000000	      1.26577563	      0.69156108	     -0.12255612	      1.26878399	      0.69810207	     -0.30924944	      1.17005616	      0.71107821	     -0.19949096	      1.13329723	      0.76528007	     -0.19623739	      1.13269558	      0.76233802	     -0.25108994	      1.10855419	      0.65875806	     -0.14168074	      1.10649053	      0.66896597	     -0.26311392	      1.10752236	      0.66386201	     -0.20239733	      1.07353280	      0.31920004	     -0.08584850	      1.06804106	      0.31983855	     -0.18620822	      1.11002008	      0.41887333	     -0.01651093	      1.16035924	      0.46050071	     -0.08807955	      1.14062821	      0.37831480	     -0.09686461	      0.78743947	      0.12242853	     -0.06911145	      0.79326312	      0.12090948	     -0.12892290	      0.86703116	      0.20146460	     -0.00733393	      0.91513487	      0.21888058	     -0.07236283	      1.03924123	      0.33505830	     -0.14298032	      0.78060083	      0.14751042	     -0.13417815	      0.76275720	      0.01294159	     -0.10435518	      1.30064435	      0.38114616	     -0.30071878	      1.29861233	      0.37898992	     -0.19663042	      1.38685383	      0.52409106	     -0.28394649	      1.30149568	      0.55437848	     -0.23342097	      1.31976089	      0.46904248	     -0.22403470	      1.27820910	      0.04256629	     -0.28661872	      1.27578732	      0.04634031	     -0.22309915	      1.37304414	      0.13855797	     -0.28434053	      1.31376975	      0.19708268	     -0.26684157	      1.25334810	      0.37648989	     -0.23265089	      1.25908160	      0.05769485	     -0.21066474	      1.37563053	      0.01144679	     -0.25545126	      1.12045204	      1.11080184	     -0.16249094	      1.10376154	      1.11482877	     -0.27660770	      1.03241412	      1.10583991	     -0.20729531	      1.11404628	      1.10065680	     -0.22286637	      1.21017832	      0.99439764	     -0.24000421	      1.11408200	      0.65595500	     -0.20167600	      1.10799800	      0.65701300	     -0.13542200	      1.10817600	      0.66658500	     -0.26088700	      1.04089500	      0.34753800	     -0.13591900	      1.25006300	      0.38291400	     -0.22325200	      0.78045300	      0.15668500	     -0.13240700	      1.25852000	      0.05846900	     -0.22836200	      1.17247400	      0.72644100	     -0.19313100	      1.17233900	      0.71923800	     -0.09872800	      1.17260800	      0.73364300	     -0.28753400	      1.02620300	      0.76211500	     -0.17256400	      1.02282000	      0.75919900	     -0.22756500	      1.04212900	      0.34719000	     -0.08543500	      1.25471500	      0.37866000	     -0.27285300	      1.04585300	      0.33278500	     -0.18200200	      1.26039700	      0.38708400	     -0.16725300	      0.77725900	      0.16165100	     -0.09943100	      1.25588500	      0.05894300	     -0.26275800	      0.78324900	      0.16367200	     -0.15754700	      1.25072800	      0.06454200	     -0.20056300	      1.03638400	      1.10685600	     -0.20937100	      1.12859800	      1.06887900	     -0.15264000	      1.11537300	      1.06767700	     -0.28157600	      1.11710200	      1.05643700	     -0.21884700	      1.15109600	      0.91632600	     -0.22051000	      1.06393800	      0.43473200	     -0.00923600	      1.32970200	      0.53525400	     -0.26267000	      1.10858500	      0.48505200	     -0.07829200	      1.23831900	      0.55752700	     -0.21803400	      1.10408400	      0.40085600	     -0.08916600	      1.26898200	      0.47721800	     -0.20087800	      0.85052900	      0.23255800	     -0.02640200	      1.34509700	      0.15923200	     -0.25896700	      0.90170900	      0.25448400	     -0.08555600	      1.28662900	      0.21521100	     -0.24098200	      0.77903900	      0.05890000	     -0.13786200	      1.35093700	      0.03744100	     -0.22226300	      0.00000000	      0.00000000	      0.00000000	      1.73002148	      0.00000000	     -0.16915878	    -75.78476421	    386.49714192	      7.15026633	      1.26495618	      0.00000000	     -0.23350450	      0.00000000	      0.00000000	      0.00000000	      0.00000000	      1.18144568	      0.00000000	      1.11408234	      0.65595520	     -0.20167613	      1.10799754	      0.65701288	     -0.13542242	      1.10817623	      0.66658491	     -0.26088658	      1.04089546	      0.34753829	     -0.13591886	      1.25006306	      0.38291377	     -0.22325213	      0.78045344	      0.15668511	     -0.13240677	      1.25851989	      0.05846949	     -0.22836231	      1.17247379	      0.72644073	     -0.19313104	      1.17233932	      0.71923840	     -0.09872767	      1.17260826	      0.73364305	     -0.28753442	      1.02620327	      0.76211536	     -0.17256355	      1.02282000	      0.75919878	     -0.22756463	      1.04212916	      0.34718984	     -0.08543514	      1.25471461	      0.37865981	     -0.27285320	      1.04585302	      0.33278522	     -0.18200216	      1.26039720	      0.38708436	     -0.16725296	      0.77725923	      0.16165085	     -0.09943120	      1.25588465	      0.05894255	     -0.26275828	      0.78324944	      0.16367213	     -0.15754719	      1.25072813	      0.06454175	     -0.20056325	      1.03638363	      1.10685635	     -0.20937148	      1.12859786	      1.06887949	     -0.15264015	      1.11537337	      1.06767702	     -0.28157583	      1.11710215	      1.05643690	     -0.21884719	      1.15109611	      0.91632581	     -0.22051023	      1.06393790	      0.43473241	     -0.00923563	      1.32970190	      0.53525406	     -0.26267031	      1.10858476	      0.48505247	     -0.07829209	      1.23831892	      0.55752730	     -0.21803407	      1.10408401	      0.40085629	     -0.08916583	      1.26898170	      0.47721815	     -0.20087825	      0.85052878	      0.23255818	     -0.02640235	      1.34509683	      0.15923183	     -0.25896710	      0.90170866	      0.25448385	     -0.08555591	      1.28662884	      0.21521096	     -0.24098195	      0.77903944	      0.05890014	     -0.13786186	      1.35093737	      0.03744059	     -0.22226316
      0.12500000	      1.16936716	      0.71212752	     -0.20003785	     -1.01405073	      4.82232428	      1.05436453	     -9.68877762	     -4.67836819	      0.01095431	    -44.67222724	    -28.65554259	     27.20893305	     10.19383734	      0.64092514	    -26.08154180	     -1.15524385	     -0.74773734	     -9.52194394	     11.34749724	      0.00000000	      0.00000000	      0.00000000	      0.00000000	      1.27526772	      0.69217164	     -0.12331892	      1.27825809	      0.69881210	     -0.31000902	      1.17958151	      0.71196253	     -0.20022520	      1.14295343	      0.76625064	     -0.19693398	      1.14233482	      0.76334140	     -0.25178810	      1.11796451	      0.65975718	     -0.14243369	      1.11590346	      0.67003942	     -0.26386064	      1.11693399	      0.66489830	     -0.20314716	      1.09316128	      0.31969181	     -0.08426385	      1.08884867	      0.31937837	     -0.18468269	      1.12561194	      0.42101724	     -0.01531534	      1.17544314	      0.46368417	     -0.08662679	      1.15845767	      0.38084207	     -0.09497512	      0.80236049	      0.12669810	     -0.06886451	      0.80882347	      0.12446199	     -0.12858771	      0.88284868	      0.20471853	     -0.00695761	      0.93202507	      0.22050270	     -0.07159958	      1.05926066	      0.33342567	     -0.14192728	      0.79676621	      0.15126030	     -0.13424757	      0.77291582	      0.01776214	     -0.10381774	      1.30705393	      0.38014148	     -0.30088426	      1.30501187	      0.37822325	     -0.19679144	      1.39474495	      0.52221816	     -0.28441816	      1.30971181	      0.55349541	     -0.23394768	      1.32709110	      0.46799409	     -0.22438536	      1.27829558	      0.04167946	     -0.28626699	      1.27591570	      0.04559152	     -0.22275419	      1.37495095	      0.13584011	     -0.28407877	      1.31680008	      0.19551490	     -0.26669478	      1.25980973	      0.37609613	     -0.23279426	      1.25942453	      0.05728206	     -0.21034477	      1.37570857	      0.01075639	     -0.25553052	      1.13034541	      1.11180815	     -0.16261189	      1.11451158	      1.11596289	     -0.27684608	      1.04263750	      1.10700504	     -0.20807592	      1.12437654	      1.10172751	     -0.22304286	      1.22049268	      0.99535619	     -0.23956293	      1.12358300	      0.65669500	     -0.20238100	      1.11751900	      0.65781600	     -0.13613800	      1.11769900	      0.66746200	     -0.26159700	      1.06025800	      0.34580100	     -0.13473600	      1.25647300	      0.38276200	     -0.22344900	      0.79675400	      0.16084700	     -0.13236800	      1.25875300	      0.05831200	     -0.22821300	      1.18214700	      0.72712700	     -0.19381600	      1.18201200	      0.71987100	     -0.09944100	      1.18228300	      0.73438400	     -0.28819200	      1.03590400	      0.76297400	     -0.17329500	      1.03253000	      0.76044700	     -0.22828000	      1.06090700	      0.34590800	     -0.08424000	      1.26107700	      0.37836100	     -0.27304200	      1.07349700	      0.32859900	     -0.18183700	      1.26678800	      0.38693500	     -0.16741300	      0.79352100	      0.16587500	     -0.09940500	      1.25616300	      0.05879900	     -0.26261200	      0.80068300	      0.16643400	     -0.15745500	      1.25099600	      0.06442300	     -0.20041200	      1.04678900	      1.10797700	     -0.20992900	      1.13906500	      1.06984000	     -0.15326300	      1.12531600	      1.06796200	     -0.28187900	      1.12740700	      1.05727900	     -0.21938900	      1.16048800	      0.91678000	     -0.22021000	      1.07891700	      0.43426700	     -0.00873600	      1.33788200	      0.53414700	     -0.26319200	      1.12347800	      0.48487700	     -0.07757800	      1.24697700	      0.55740500	     -0.21906100	      1.12425500	      0.40098200	     -0.08765700	      1.27658400	      0.47677600	     -0.20146500	      0.86763400	      0.23509700	     -0.02597700	      1.34735000	      0.15721300	     -0.25886200	      0.92026200	      0.25524700	     -0.08510100	      1.28954000	      0.21429100	     -0.24127100	      0.79111800	      0.06236100	     -0.13685700	      1.35113700	      0.03714400	     -0.22199800	      0.00000000	      0.00000000	      0.00000000	      1.73113220	      0.00000000	     -0.16974533	    -71.98834691	    397.87229606	      5.67557945	      1.26582703	      0.00000000	     -0.23298235	      0.00000000	      0.00000000	      0.00000000	      0.00000000	      1.27077271	      0.00000000	      1.12358308	      0.65669543	     -0.20238143	      1.11751902	      0.65781581	     -0.13613817	      1.11769879	      0.66746229	     -0.26159662	      1.06025803	      0.34580064	     -0.13473584	      1.25647342	      0.38276187	     -0.22344889	      0.79675382	      0.16084665	     -0.13236761	      1.25875282	      0.05831176	     -0.22821255	      1.18214738	      0.72712731	     -0.19381642	      1.18201220	      0.71987087	     -0.09944110	      1.18228257	      0.73438382	     -0.28819174	      1.03590441	      0.76297402	     -0.17329490	      1.03252995	      0.76044726	     -0.22827990	      1.06090736	      0.34590840	     -0.08424013	      1.26107728	      0.37836090	     -0.27304161	      1.07349670	      0.32859921	     -0.18183699	      1.26678824	      0.38693467	     -0.16741337	      0.79352057	      0.16587517	     -0.09940536	      1.25616276	      0.05879862	     -0.26261175	      0.80068296	      0.16643380	     -0.15745483	      1.25099611	      0.06442271	     -0.20041239	      1.04678857	      1.10797656	     -0.20992921	      1.13906503	      1.06983960	     -0.15326305	      1.12531602	      1.06796241	     -0.28187850	      1.12740731	      1.05727923	     -0.21938917	      1.16048825	      0.91677994	     -0.22021013	      1.07891738	      0.43426740	     -0.00873616	      1.33788168	      0.53414714	     -0.26319164	      1.12347770	      0.48487672	     -0.07757845	      1.24697721	      0.55740464	     -0.21906106	      1.12425470	      0.40098161	     -0.08765737	      1.27658391	      0.47677630	     -0.20146459	      0.86763394	      0.23509729	     -0.02597683	      1.34734976	      0.15721317	     -0.25886244	      0.92026174	      0.25524727	     -0.08510087	      1.28953981	      0.21429074	     -0.24127145	      0.79111809	      0.06236094	     -0.13685736	      1.35113716	      0.03714433	     -0.22199829
